<svg width="19" height="11" viewBox="0 0 19 11" fill="none" xmlns="http://www.w3.org/2000/svg">
<path d="M18.575 2.14961L10.175 10.5746C10.075 10.6746 9.96667 10.7453 9.85 10.7866C9.73333 10.8286 9.60833 10.8496 9.475 10.8496C9.34167 10.8496 9.21667 10.8286 9.1 10.7866C8.98333 10.7453 8.875 10.6746 8.775 10.5746L0.35 2.14961C0.116666 1.91628 -4.03238e-07 1.62461 -4.18537e-07 1.27461C-4.33836e-07 0.924609 0.125 0.62461 0.375 0.37461C0.625 0.12461 0.916666 -0.000390093 1.25 -0.000390107C1.58333 -0.000390122 1.875 0.12461 2.125 0.37461L9.475 7.72461L16.825 0.374609C17.0583 0.141276 17.3457 0.0246088 17.687 0.0246088C18.029 0.0246088 18.325 0.149609 18.575 0.399609C18.825 0.649609 18.95 0.941276 18.95 1.27461C18.95 1.60794 18.825 1.89961 18.575 2.14961Z" fill="black"/>
</svg>
