<?xml version="1.0" encoding="utf-8"?><svg xmlns="http://www.w3.org/2000/svg" xmlns:xlink="http://www.w3.org/1999/xlink"><symbol fill="none" viewBox="0 0 19 11" id="arrow" xmlns="http://www.w3.org/2000/svg"><path d="m18.575 2.15-8.4 8.425c-.1.1-.208.17-.325.212a1.099 1.099 0 0 1-.375.063c-.133 0-.258-.021-.375-.063a.871.871 0 0 1-.325-.212L.35 2.15A1.187 1.187 0 0 1 0 1.275c0-.35.125-.65.375-.9A1.2 1.2 0 0 1 1.25 0a1.2 1.2 0 0 1 .875.375l7.35 7.35 7.35-7.35c.233-.234.52-.35.862-.35.342 0 .638.125.888.375s.375.541.375.875a1.2 1.2 0 0 1-.375.875Z" fill="#000"/></symbol><symbol fill="none" viewBox="0 0 11 11" id="breadcrumbs_arrow" xmlns="http://www.w3.org/2000/svg"><path d="m5.347.218 4.89 4.876c.059.058.1.12.124.188.024.068.037.14.037.218 0 .077-.013.15-.037.218a.505.505 0 0 1-.123.188l-4.89 4.89a.689.689 0 0 1-.509.204.713.713 0 0 1-.522-.218.696.696 0 0 1-.218-.508c0-.193.073-.362.218-.508L8.583 5.5 4.317 1.234a.68.68 0 0 1-.203-.5c0-.2.072-.371.218-.516A.696.696 0 0 1 4.838 0c.194 0 .363.073.508.218Z" fill="#BFD51E"/><path d="m1.248.218 4.89 4.876c.058.058.1.12.123.188.025.068.037.14.037.218 0 .077-.012.15-.037.218a.506.506 0 0 1-.123.188l-4.89 4.89A.689.689 0 0 1 .74 11a.713.713 0 0 1-.523-.218.696.696 0 0 1-.217-.508c0-.193.072-.362.217-.508L4.484 5.5.217 1.234a.68.68 0 0 1-.203-.5c0-.2.073-.371.218-.516A.696.696 0 0 1 .74 0c.193 0 .363.073.508.218Z" fill="#BFD51E"/></symbol><symbol fill="none" viewBox="0 0 26 26" id="cross" xmlns="http://www.w3.org/2000/svg"><path d="m17.32 8.68-8.64 8.64m0-8.64 8.64 8.64M13 25c6.627 0 12-5.373 12-12S19.627 1 13 1 1 6.373 1 13s5.373 12 12 12Z" stroke="#EAA79C" stroke-width="1.5" stroke-linecap="round" stroke-linejoin="round"/></symbol></svg>